<svg xmlns="http://www.w3.org/2000/svg" width="504" height="380" viewBox="0 0 504 380" role="img" aria-labelledby="ld-customer-map-title ld-customer-map-desc" style="font-family: inherit;">
  <title id="ld-customer-map-title">ตำแหน่งบ้านลูกค้าและร้านเที่ยงไว</title>
  <desc id="ld-customer-map-desc">แผนที่ตัวอย่างแสดงบ้านลูกค้าที่เลือกด้วยหมุดสีเขียวและอักษร ก พร้อมร้านเที่ยงไวและถนนโดยรอบมหาวิทยาลัย</desc>
  <defs>
    <clipPath id="ld-customer-map-clip">
      <rect width="504" height="380" />
    </clipPath>
  </defs>
  <g clip-path="url(#ld-customer-map-clip)">
    <rect width="504" height="380" fill="#F6F8F5" />
    <g fill="#EAF3ED">
      <rect x="65" y="24" width="210" height="100" rx="20" />
      <rect x="440" y="240" width="170" height="92" rx="24" />
    </g>
    <rect x="320" y="90" width="124" height="78" rx="10" fill="#E4E9E3" />
    <rect x="404" y="0" width="100" height="330" fill="#EAF3ED" />
    <g fill="none" stroke="#FFFFFF" stroke-width="16" stroke-linecap="round" stroke-linejoin="round">
      <path d="M0 80 L250 80 L320 160 L796 160" />
      <path d="M60 0 L60 310 L796 310" />
      <path d="M200 0 L200 200 L460 200 L600 392" />
      <path d="M450 0 L450 280 L300 392" />
      <path d="M0 255 L110 255 L250 390" />
      <path d="M620 0 L620 110 L760 220" />
      <path d="M0 350 L796 350" />
      <path d="M330 0 L330 80" />
      <path d="M500 160 L500 0" />
    </g>
    <g fill="none" stroke="#E4E9E3" stroke-width="1" stroke-linecap="round" stroke-linejoin="round">
      <path d="M0 80 L250 80 L320 160 L796 160" />
      <path d="M60 0 L60 310 L796 310" />
      <path d="M200 0 L200 200 L460 200 L600 392" />
      <path d="M450 0 L450 280 L300 392" />
      <path d="M0 255 L110 255 L250 390" />
      <path d="M620 0 L620 110 L760 220" />
      <path d="M0 350 L796 350" />
      <path d="M330 0 L330 80" />
      <path d="M500 160 L500 0" />
    </g>
    <g fill="#7D8D82" font-size="12" font-weight="500">
      <text x="79" y="69">มหาวิทยาลัยมหาสารคาม</text>
      <text x="312" y="183">ถนนขามเรียง</text>
      <text x="469" y="275">โซนหอพัก</text>
      <text x="616" y="113">ท่าขอนยาง</text>
    </g>
    <rect x="325" y="271" width="38" height="38" rx="12" fill="#163E32" />
    <text x="344" y="295" fill="#FFFFFF" font-size="14" font-weight="600" text-anchor="middle">ท</text>
    <rect x="307" y="313" width="74" height="36" fill="#FFFFFF" />
    <text x="315" y="335" fill="#163E32" font-size="12" font-weight="500">ร้านเที่ยงไว</text>
    <circle cx="202" cy="201" r="16" fill="#217A54" />
    <text x="202" y="206" fill="#FFFFFF" font-size="14" font-weight="600" text-anchor="middle">ก</text>
    <text x="177" y="239" fill="#217A54" font-size="12" font-weight="500">บ้านลูกค้า</text>
  </g>
</svg>
